# xmcd
#
# Track frame offsets:
#	150
#	19279
#	35183
#	55848
#	72750
#	80793
#	103318
#	118839
#	140772
#	159832
#	179984
#
# Disc length: 2574 seconds
#
# Revision: 0
# Processed by: cddbd v1.5.1PL0 Copyright (c) Steve Scherf et al.
# Submitted via: dBpowerAMP V4.0
#
DISCID=a90a0c0b
DTITLE=The Johnny Staats Project - Wires and Wood
DYEAR=2001
DGENRE=Country
TTITLE0=Mandolin Meltdown
TTITLE1=Coal Tattoo
TTITLE2=Legend of the Ghost Coon
TTITLE3=Wires and Wood
TTITLE4=Shafer's Reel
TTITLE5=Escape from Taiwan
TTITLE6=You can't take it with you when you go
TTITLE7=Catch me if you can
TTITLE8=Timbuktu
TTITLE9=Jessica's Lullaby
TTITLE10=Johny "Barty" Jam
EXTD=
EXTT0=
EXTT1=
EXTT2=
EXTT3=
EXTT4=
EXTT5=
EXTT6=
EXTT7=
EXTT8=
EXTT9=
EXTT10=
PLAYORDER=
